<svg width="40.832" height="44.034" viewBox="0 0 40.832 44.034" xmlns="http://www.w3.org/2000/svg">
    <g fill-rule="evenodd" fill="#171A1C">
        <path d="M 40.384 20.546 L 40.832 20.866 Q 40.448 21.442 39.936 23.266 Q 39.424 25.09 39.424 25.858 Q 38.848 26.434 38.592 27.714 Q 38.208 29.506 38.144 29.762 L 38.208 30.21 Q 37.824 30.594 37.568 30.914 L 37.76 31.362 Q 37.44 32.13 36.928 33.218 L 36.288 33.666 L 36.16 34.37 L 35.84 34.562 L 35.84 34.818 Q 35.392 35.714 34.24 37.122 Q 33.088 38.53 32.704 39.298 L 31.68 39.554 L 31.232 40.258 Q 31.04 40.258 30.592 40.386 L 30.208 40.77 Q 29.952 40.834 29.44 41.09 L 29.184 41.41 L 28.8 41.602 L 28.544 41.922 A 26.94 26.94 0 0 1 23.941 42.973 Q 23.393 43.035 22.94 43.035 A 5.443 5.443 0 0 1 22.4 43.01 L 21.888 43.266 L 21.184 43.33 L 20.864 43.074 L 20.864 42.626 L 20.16 43.138 Q 19.264 42.946 18.816 43.074 L 18.432 42.882 L 18.048 42.946 Q 17.792 42.754 17.344 42.754 L 17.088 42.882 Q 15.936 42.69 15.296 42.754 L 14.784 42.434 Q 14.528 42.434 14.144 42.306 Q 12.992 42.05 11.2 41.986 L 10.944 41.73 L 10.112 41.538 L 9.856 41.602 L 8.832 41.346 Q 8.448 41.474 7.04 41.538 Q 6.016 41.602 4.928 42.434 L 4.288 42.434 L 4.16 42.626 L 4.416 42.754 L 4.48 43.01 L 3.84 43.714 Q 3.648 43.778 3.136 44.034 L 1.92 44.034 Q 1.6 43.906 0.896 43.522 L 0.128 42.562 L 0 41.602 Q 0.128 41.282 0.192 40.706 L 1.472 38.978 Q 1.792 38.786 2.112 38.658 L 2.176 38.402 L 2.496 38.338 Q 3.328 37.634 4.416 37.25 Q 4.992 36.674 5.824 35.458 L 6.656 35.522 L 6.208 35.138 L 6.08 34.69 Q 6.208 34.306 6.24 34.082 A 54.724 54.724 0 0 1 6.59 32.334 A 327.701 327.701 0 0 1 6.592 32.322 Q 6.912 30.786 6.784 30.274 L 6.656 30.018 Q 6.656 29.186 6.912 28.738 L 7.488 28.482 A 1.461 1.461 0 0 0 7.033 28.396 A 0.761 0.761 0 0 0 6.848 28.418 L 6.784 27.97 A 3.222 3.222 0 0 0 7.132 26.631 A 1.817 1.817 0 0 0 7.104 26.306 Q 6.848 25.986 6.464 25.602 A 12.288 12.288 0 0 0 7.026 21.751 A 34.875 34.875 0 0 0 7.04 20.738 L 7.04 20.482 L 7.168 20.162 Q 7.104 19.458 7.296 19.01 L 7.616 18.946 L 7.68 18.69 Q 7.36 18.242 7.168 17.73 Q 7.232 16.898 7.808 12.866 A 10.536 10.536 0 0 1 7.298 9.701 A 31.721 31.721 0 0 1 7.296 9.666 Q 7.168 7.362 6.528 6.21 L 6.08 5.89 L 6.144 5.57 L 6.016 5.186 L 5.632 5.378 Q 5.44 5.25 4.096 4.674 Q 3.392 4.098 2.88 3.01 L 2.816 2.434 Q 3.008 1.986 2.944 1.666 L 3.328 0.834 L 4.288 0.194 Q 4.416 0.13 4.64 0.066 Q 4.864 0.002 4.928 0.002 Q 5.888 0.002 6.528 0.194 Q 6.72 0.386 8.128 1.666 L 8.256 1.922 L 9.088 2.114 L 9.472 2.37 L 9.984 2.37 Q 10.176 2.434 10.432 2.434 Q 10.56 2.434 11.648 2.146 A 5.948 5.948 0 0 1 12.829 1.91 A 0.329 0.329 0 0 1 12.928 1.922 Q 13.12 1.73 15.52 1.282 A 32.182 32.182 0 0 1 17.849 0.903 Q 18.102 0.879 18.176 0.898 Q 18.88 0.514 20.16 0.642 L 20.608 0.45 L 20.992 0.642 Q 22.144 0.514 23.68 0.514 Q 26.88 0.514 30.4 2.69 L 30.208 2.626 Q 30.4 2.69 30.72 2.85 Q 31.04 3.01 31.168 3.138 L 31.104 3.394 L 31.168 3.778 L 31.424 3.778 L 31.872 3.586 A 17.885 17.885 0 0 0 33.26 4.533 A 113.477 113.477 0 0 0 33.28 4.546 Q 33.408 4.93 33.664 5.314 L 34.112 5.314 Q 34.112 6.594 35.744 8.514 A 7.981 7.981 0 0 1 37.547 11.418 A 2.053 2.053 0 0 1 37.568 11.522 L 38.016 11.97 Q 38.4 12.93 38.4 14.978 Q 38.72 15.298 38.784 15.49 Q 38.784 17.41 39.616 19.522 L 40.064 19.458 Q 40.192 19.778 40.384 20.546 Z M 28.8 23.618 L 28.8 22.658 Q 28.8 22.402 28.608 21.602 Q 28.416 20.802 28.416 20.61 L 28.8 20.034 Q 28.736 18.37 28.704 17.474 A 9.45 9.45 0 0 0 28.676 16.876 A 1.179 1.179 0 0 0 28.672 17.026 L 28.544 16.77 A 59.458 59.458 0 0 0 28.518 14.506 Q 28.506 14.261 28.488 14.261 A 0.016 0.016 0 0 0 28.48 14.274 Q 28.288 13.954 28.288 13.634 Q 28.032 13.378 27.712 12.418 A 8.826 8.826 0 0 0 27.749 11.66 A 2.118 2.118 0 0 0 27.52 10.498 L 27.008 9.986 L 26.88 8.962 Q 26.176 7.49 25.856 7.234 L 25.792 6.85 Q 25.536 6.466 25.088 6.274 A 5.99 5.99 0 0 0 23.899 5.182 A 44.904 44.904 0 0 0 23.744 5.058 Q 23.04 4.546 20.16 4.034 Q 19.584 4.29 19.2 4.226 A 4.007 4.007 0 0 0 17.569 7.051 A 2.273 2.273 0 0 0 17.6 7.426 L 17.28 8.066 Q 17.344 8.322 17.344 8.45 Q 17.344 8.898 17.216 9.794 Q 17.088 10.69 17.088 11.138 Q 17.088 11.266 17.152 11.778 Q 17.216 12.29 17.216 12.418 Q 17.216 12.546 17.056 13.058 Q 16.896 13.57 16.896 13.698 Q 16.896 14.914 17.152 15.234 Q 17.088 15.362 17.024 17.794 Q 16.903 21.363 17.011 21.959 A 0.62 0.62 0 0 0 17.024 22.018 L 16.768 22.85 Q 16.832 23.298 16.832 23.49 Q 16.832 23.554 16.768 23.874 A 2.954 2.954 0 0 1 17.035 24.976 A 1.433 1.433 0 0 1 17.024 25.154 Q 17.536 25.41 17.6 25.922 Q 17.6 27.714 17.696 28.546 A 4.558 4.558 0 0 0 17.787 29.182 A 0.133 0.133 0 0 0 17.792 29.122 Q 17.408 29.762 17.344 30.21 L 17.536 30.594 L 17.536 31.298 Q 17.472 31.682 17.472 31.938 Q 17.472 32.066 17.536 32.706 L 17.984 33.154 Q 18.368 33.986 18.24 35.906 Q 18.624 36.802 18.688 37.378 Q 19.2 38.21 20.416 39.234 Q 20.736 39.234 21.184 39.618 L 21.568 39.618 Q 21.696 39.682 21.888 39.682 Q 22.912 39.682 23.872 39.234 Q 24.448 38.85 25.472 37.698 L 25.6 36.866 Q 25.792 36.546 26.368 35.97 L 26.816 34.69 Q 27.136 34.562 27.456 34.37 Q 27.776 33.09 27.584 32.45 A 16.835 16.835 0 0 0 28.583 26.785 A 16.497 16.497 0 0 0 28.416 24.45 Q 28.48 24.258 28.8 23.618 Z" />
    </g>
</svg>
