<?xml version="1.0" encoding="UTF-8"?>
<svg xmlns="http://www.w3.org/2000/svg" xmlns:xlink="http://www.w3.org/1999/xlink" viewBox="0 0 1025.000000 213.000000" preserveAspectRatio="xMidYMid meet">
    <title>Logo</title>
    <desc>Logo para o site azdias.com.br</desc>
    <g transform="translate(0.000000,213.000000) scale(0.100000,-0.100000)" stroke="none">
        <path d="M6600 1970 l0 -160 170 0 170 0 0 160 0 160 -170 0 -170 0 0 -160z"/>
        <path d="M614 1983 c-21 -65 -167 -527 -324 -1028 -158 -501 -284 -913 -280 -918 3 -4 83 -6 175 -5 l169 3 70 223 70 222 406 0 406 0 72 -225 73 -225 174 0 c96 0 175 3 175 8 0 4 -146 468 -323 1032 l-323 1025 -252 3 -251 2 -37 -117z m440 -709 c80 -254 146 -464 146 -467 0 -4 -135 -7 -300 -7 -165 0 -300 3 -300 7 0 23 295 941 301 935 3 -4 72 -214 153 -468z"/>
        <path d="M4565 2089 c-3 -8 -4 -473 -3 -1034 l3 -1020 425 1 c355 1 440 4 515 18 187 35 306 96 430 221 170 170 256 370 286 664 27 273 -37 573 -166 776 -21 33 -77 98 -124 145 -122 120 -234 177 -421 215 -110 22 -937 34 -945 14z m933 -348 c126 -43 211 -120 273 -246 68 -140 83 -212 83 -425 1 -163 -2 -195 -22 -269 -37 -136 -86 -226 -167 -307 -115 -115 -189 -133 -542 -134 l-213 0 0 706 0 706 263 -4 c237 -4 268 -7 325 -27z"/>
        <path d="M7795 1604 c-95 -20 -219 -81 -282 -138 -76 -68 -167 -215 -168 -269 0 -8 306 -111 309 -105 1 2 9 19 18 38 26 59 69 101 132 131 90 43 155 53 252 41 88 -12 145 -35 181 -74 28 -30 60 -103 65 -148 l3 -35 -90 -12 c-486 -68 -691 -130 -804 -243 -190 -190 -160 -553 59 -700 98 -66 157 -83 313 -88 225 -7 351 35 483 160 l73 70 3 -99 3 -98 148 -3 148 -3 -3 588 c-3 585 -3 588 -26 652 -61 169 -180 272 -370 323 -104 27 -347 34 -447 12z m502 -927 c-18 -251 -160 -392 -409 -405 -90 -4 -101 -3 -151 22 -136 66 -155 230 -37 315 74 54 146 75 400 121 224 41 204 46 197 -53z"/>
        <path d="M9455 1614 c-11 -2 -45 -9 -75 -15 -89 -17 -217 -84 -275 -143 -88 -91 -134 -222 -122 -351 19 -203 145 -297 557 -415 252 -72 313 -99 337 -143 21 -41 20 -117 -2 -155 -57 -96 -244 -130 -400 -71 -75 28 -155 105 -177 169 -9 27 -21 44 -29 43 -85 -10 -321 -48 -328 -53 -14 -8 11 -100 49 -177 67 -136 238 -255 413 -288 118 -22 354 -20 449 4 150 39 282 131 341 239 77 142 73 338 -9 458 -75 111 -200 171 -539 259 -222 58 -296 96 -314 160 -20 74 33 152 121 176 69 18 233 7 290 -20 61 -29 125 -99 133 -145 5 -24 13 -36 24 -36 19 0 296 48 322 56 14 4 15 11 7 47 -55 249 -310 409 -645 406 -59 -1 -117 -3 -128 -5z"/>
        <path d="M2000 1430 l0 -150 365 0 c201 0 365 -2 365 -5 0 -3 -182 -271 -405 -597 -299 -437 -405 -599 -405 -620 l0 -28 658 2 657 3 0 150 0 150 -387 5 -387 5 404 592 c273 399 405 600 405 617 l0 26 -635 0 -635 0 0 -150z"/>
        <path d="M6600 805 l0 -775 170 0 170 0 0 775 0 775 -170 0 -170 0 0 -775z"/>
        <path d="M3700 1215 l0 -175 180 0 180 0 0 175 0 175 -180 0 -180 0 0 -175z"/>
        <path d="M3700 400 l0 -180 175 0 175 0 0 180 0 180 -175 0 -175 0 0 -180z"/>
    </g>
</svg>